/* XPM */
static char *_42459ff580144a1cecc0b8d993df62eJ5gghZVb97tpS8G9[] = {
/* columns rows colors chars-per-pixel */
"32 32 182 2 ",
"   c #1C0B02",
".  c #1A0A02",
"X  c #190A01",
"o  c #1A0A01",
"O  c #180901",
"+  c #040100",
"@  c #0C0501",
"#  c #190A02",
"$  c #1B0A02",
"%  c #080300",
"&  c #070300",
"*  c #0D0501",
"=  c #030100",
"-  c #050200",
";  c #3F1804",
":  c #692806",
">  c #682706",
",  c #662706",
"<  c #1E0B02",
"1  c #2C1103",
"2  c #682806",
"3  c #2F1203",
"4  c #1C0A02",
"5  c #652606",
"6  c #411904",
"7  c #7C2F07",
"8  c #CE4E0C",
"9  c #CB4D0C",
"0  c #C84C0C",
"q  c #3C1703",
"w  c #582105",
"e  c #CD4E0C",
"r  c #5D2305",
"t  c #381503",
"y  c #C74B0C",
"u  c #803107",
"i  c #0A0401",
"p  c #0C0401",
"a  c #7A2E07",
"s  c #C54B0C",
"d  c #3B1603",
"f  c #572105",
"g  c #CA4C0C",
"h  c #CA4D0C",
"j  c #5B2305",
"k  c #371503",
"l  c #C44A0B",
"z  c #7E3007",
"x  c #792E07",
"c  c #C2490B",
"v  c #3A1603",
"b  c #562105",
"n  c #5A2205",
"m  c #361503",
"M  c #C1490B",
"N  c #C54B0B",
"B  c #7D2F07",
"V  c #090401",
"C  c #010000",
"Z  c #240D02",
"A  c #3D1704",
"S  c #3E1704",
"D  c #100601",
"F  c #3E1804",
"G  c #0E0501",
"H  c #3C1704",
"J  c #250E02",
"K  c black",
"L  c #592205",
"P  c #552005",
"I  c #562005",
"U  c #521F05",
"Y  c #110601",
"T  c #2B1002",
"R  c #2D1103",
"E  c #511F05",
"W  c #592105",
"Q  c #C94C0C",
"!  c #2E1103",
"~  c #4B1C04",
"^  c #471B04",
"/  c #6E2906",
"(  c #BF480B",
")  c #4A1C04",
"_  c #461B04",
"`  c #C74C0C",
"'  c #6D2906",
"]  c #2A1002",
"[  c #BE480B",
"{  c #C0490B",
"}  c #4F1E05",
"|  c #4D1D04",
" . c #4C1D04",
".. c #491C04",
"X. c #0F0601",
"o. c #260E02",
"O. c #4E1E05",
"+. c #190901",
"@. c #280F02",
"#. c #481B04",
"$. c #290F02",
"%. c #451A04",
"&. c #441A04",
"*. c #120701",
"=. c #461A04",
"-. c #431A04",
";. c #C44A0C",
":. c #5B2205",
">. c #C34A0B",
",. c #CC4D0C",
"<. c #C64B0C",
"1. c #803008",
"2. c #020100",
"3. c #5F2406",
"4. c #270F02",
"5. c #5E2306",
"6. c #5E2406",
"7. c #170901",
"8. c #010100",
"9. c #391503",
"0. c #361403",
"q. c #331303",
"w. c #090301",
"e. c #BB470B",
"r. c #491B04",
"t. c #6A2806",
"y. c #291002",
"u. c #B9460B",
"i. c #BF490B",
"p. c #C24A0B",
"a. c #6E2A06",
"s. c #2B1003",
"d. c #712B06",
"f. c #6F2A06",
"g. c #702A06",
"h. c #702B06",
"j. c #150801",
"k. c #712B07",
"l. c #0B0401",
"z. c #742C07",
"x. c #BD480B",
"c. c #BA470B",
"v. c #531F05",
"b. c #341403",
"n. c #782D07",
"m. c #7B2E07",
"M. c #5C2305",
"N. c #7F3007",
"B. c #CF4E0C",
"V. c #060200",
"C. c #823108",
"Z. c #813107",
"A. c #803007",
"S. c #240E02",
"D. c #391603",
"F. c #220D02",
"G. c #823107",
"H. c #501E05",
"J. c #040200",
"K. c #1F0C02",
"L. c #200C02",
"P. c #1E0C02",
"I. c #B5450B",
"U. c #AD420A",
"Y. c #5F2405",
"T. c #B8460B",
"R. c #431904",
"E. c #401804",
"W. c #B5450A",
"Q. c #622506",
"!. c #260F02",
"~. c #AC410A",
"^. c #903608",
"/. c #903708",
"(. c #893408",
"). c #210C02",
"_. c #923708",
"`. c #351403",
"'. c #8F3608",
"]. c #4E1E04",
"[. c #883408",
"{. c white",
/* pixels */
"  . X o O + @ . X # $ $ X X o % & X X X $ $ X X . * = O X X .   ",
"- ; : > > : > > > , < 1 : > > > 2 > > : 3 4 5 > > > : > > : 6 + ",
"@ 7 8 9 9 9 9 9 9 0 q w e 9 9 9 9 9 9 e r t y 9 9 9 9 9 9 8 u i ",
"p a 9 0 0 0 0 0 0 s d f g 0 0 0 0 0 0 h j k l 0 0 0 0 0 0 9 z i ",
"p x 0 s s s s s s c v b y s s s s s s y n m M N N s N N N 0 B V ",
"C Z A q q ; S q q d D O A q q F F q q A o G d q q S ; H q A J K ",
"L f P I U Y T f P I w f P P I <   P P P f w P P f R D E I P f W ",
"Q Q Q h M ! : e Q g g Q g g g ~ ^ Q g Q Q Q Q Q e / T ( h Q Q Q ",
"0 0 0 0 ( R 2 9 0 0 0 0 0 0 0 ) _ ` 0 0 0 0 0 0 9 ' ] [ 0 0 0 0 ",
"0 0 0 Q { ! : 9 0 0 0 0 0 0 Q ~ ^ 0 0 0 0 0 0 0 9 ' T [ Q 0 0 0 ",
"} |  . ...X.o.|  . .O.O. . . .. +. . . .O.O. . .| @.* #. . .| } ",
"C $._ %.%.#.^ %.%.&.*.  =.%.%.^ ^ %.%.=.< Y -.%.%.^ #.%.%._ ] K ",
"p a h y y y y y ` ;.d f Q y y y y y y Q :.k >.` y y y y y h z i ",
"p a 9 0 0 0 0 0 0 s d f h 0 0 0 0 0 0 h j k l 0 0 0 0 0 0 9 z i ",
"@ 7 8 h h h h h h y q w ,.h h h h h h e r t <.h h h h h h 8 1.i ",
"2.t 3.r r 3.3.r r j +.4.5.r r 3.3.r r 6.$.7.:.r r 6.3.r r 3.v 8.",
"9.k 0.0.q.i $ k 0.0.t t 0.0.0.*.Y 0.0.0.t t 0.0.k   w.q.0.0.k 9.",
">.>.>.>.e.1 , <.>.>.>.>.>.>.>.r.%.>.>.>.>.>.>.>.<.t.y.u.l >.>.>.",
"0 0 0 0 i.R : 9 0 0 0 0 0 0 0 ) _ 0 0 0 0 0 0 0 9 ' T [ 0 0 0 0 ",
"9 9 9 9 p.! t.8 9 9 9 9 9 9 9  .#.9 9 9 9 9 9 9 8 a.s.M ,.9 9 9 ",
"d.f.a.f.t.7.t g.a.a.g.g.a.a.f.4.J a.a.a.g.h.a.a.g.d j.: f.a.f.k.",
"C +.] y.y.] ] y.y.@.l.Y ] y.y.] ] y.y.] *.i @.y.y.] ] y.y.] X K ",
"l.z.{ x.x.x.x.x.x.c.t v.( x.x.x.x.x.x.i.f b.u.x.x.x.x.x.x.{ n.w.",
"p m.,.0 0 0 0 0 0 N d f h 0 0 0 0 0 0 9 M.k l 0 0 0 0 0 0 ,.N.i ",
"@ 7 B.9 9 9 9 9 9 0 q L e 9 9 9 9 9 9 e r t y 9 9 9 9 9 9 B.u i ",
"V.| C.N.N.Z.u N.A.B S.m Z.N.N.Z.Z.N.N.Z.D.F.B A.N.u Z.N.N.G.H.J.",
"K.K.L.L.P.% Y L.L.L.K.K.L.L.L.* @ L.L.L.K.K.L.L.L.*.% < L.L.K.K.",
"I.I.I.I.U.y.Y.T.I.I.I.I.I.I.I.R.E.I.I.I.I.I.I.W.T.Q.!.~.I.I.I.I.",
"Q Q Q Q { ! : ,.Q Q Q Q Q Q Q ~ ^ 0 Q Q Q Q Q Q ,.' T ( Q Q Q Q ",
"9 9 9 9 p.! t.8 9 9 9 9 9 9 9  .#.h 9 9 9 9 9 9 8 a.s.M 9 9 9 9 ",
"^.^.^./.(.).~ _.^.^.^.^.^.^.^.`.q.'.^.^.'.'.'.^._.].K.[.^.^.'.'.",
"V.V.V.V.V.8.= V.V.V.V.V.V.V.V.2.2.V.V.V.V.V.V.V.V.= C V.V.V.V.V."
};
