/* XPM */
static char *_cce28f12bf642ccfb9e118bd3fcf2ebikE3XYynlO1YPrRR[] = {
/* columns rows colors chars-per-pixel */
"32 32 104 2 ",
"   c #010100",
".  c #0B0400",
"X  c #120600",
"o  c #180700",
"O  c #130D01",
"+  c #1C0A00",
"@  c #161101",
"#  c #1B1501",
"$  c #1F1801",
"%  c #0F1011",
"&  c #141414",
"*  c #171718",
"=  c #17181A",
"-  c #1A1B1B",
";  c #220C00",
":  c #2D1000",
">  c #221901",
",  c #331200",
"<  c #3C1600",
"1  c #2D2201",
"2  c #342701",
"3  c #342801",
"4  c #3C2D01",
"5  c #342C15",
"6  c #3A321A",
"7  c #222222",
"8  c #32312F",
"9  c #383735",
"0  c #3A3937",
"q  c #401700",
"w  c #451900",
"e  c #4D1C00",
"r  c #541E00",
"t  c #473501",
"y  c #483602",
"u  c #652500",
"i  c #6A2600",
"p  c #742B00",
"a  c #7D2D00",
"s  c #656155",
"d  c #802F00",
"f  c #843000",
"g  c #893200",
"h  c #903400",
"j  c #9C3900",
"k  c #A53D00",
"l  c #AB3E00",
"z  c #AF4000",
"x  c #B54200",
"c  c #BA4400",
"v  c #C14700",
"b  c #C54900",
"n  c #CB4A00",
"m  c #D04C00",
"M  c #BC8E05",
"N  c #C49505",
"B  c #CB9906",
"V  c #D39F06",
"C  c #D6A204",
"Z  c #DAA506",
"A  c #DEA806",
"S  c #D1A41C",
"D  c #E3AC06",
"F  c #E8AF06",
"G  c #E7AF09",
"H  c #EAB106",
"J  c #E9B109",
"K  c #F0B607",
"L  c #FBBE07",
"P  c #D7A921",
"I  c #DEAF20",
"U  c #FFC206",
"Y  c #FFC20B",
"T  c #FEC51E",
"R  c #FFC721",
"E  c #FFC925",
"W  c #FDCC3C",
"Q  c #90845E",
"!  c #FACC42",
"~  c #B5B5B7",
"^  c #BABBBC",
"/  c #D4CDBB",
"(  c #DDD4BC",
")  c #C3C3C5",
"_  c #C9C9CA",
"`  c #D7D1C1",
"'  c #DFD9C7",
"]  c #DCDCDE",
"[  c #E3DBC4",
"{  c #E3DDCB",
"}  c #E8E1CF",
"|  c #FFF2C7",
" . c #FFF4CE",
".. c #E7E2D2",
"X. c #FFF5D1",
"o. c #FFF7DF",
"O. c #FFF8DF",
"+. c #DEDFE1",
"@. c #E2E3E5",
"#. c #E5E6E8",
"$. c #FFF7E1",
"%. c #FFFAE5",
"&. c #FFFAE9",
"*. c white",
/* pixels */
"+ + + + o   . + + +                         + + + X . o + + + + ",
". < i i i u r r e w .   - 7 7 7 7 -       . w e e r u u u i q   ",
". a n n n c : + X X   * ) #.@.@.#.) =       X + O , x n n n f . ",
". a n b x j O   7 7 7 0 [ $.$.O.%.[ 6 > > $       + x n n n f   ",
". p n c : X   - _ #.#...W T R T T T J F D B #     + l b b n a . ",
"  ; < , .   = 9 } %.%.X.W T R R R T G H U F 4 @   . < q < q ;   ",
"r r r e . = ) { W E E W | $.$.$.$.[ 6 4 F U D N #     . e r r r ",
"n n c j o - +.%.T U U T O.*.%.$.%.' = $ D U U D $     + x n n n ",
"n c : X   - +.%.E U U T o.&.! R E I # > D U U A $     + c b b n ",
"n c +   - 0 { | R U U R o.%.E U U A # > F U Y D 4 #   o j x b n ",
"r w . = ) } W T Y U U T o.%.E L U A # $ D U U L D N #   o + w r ",
"  ; . - ] %.E L U U U R o.%.E U U A # $ D U U U U D #     . ;   ",
". u ; - ] %.E U U U U R o.%.E L Y A # > F U U U U A $     + i . ",
". u + - ] %.E U U U U R o.%.E U U A # > D U U Y U A #     ; i . ",
". i ; - ] %.E L U U U R $.%.E L U A # > D U U U Y A #     ; i . ",
"  , . - ] %.E U U U U R o.%.E L U A # > D Y U U U A $     X ,   ",
", , . - ] %.E L U U U R o.%.R L U A # $ D Y U U U A $       , < ",
"b x X - ] %.E U U L U R o.%.E U Y A # > D U U U Y A $     # z n ",
"n x + - ] %.E U U U U R o.%.E U U A # $ D U U Y U A $     + c n ",
"m x + - ] %.E U L U U R o.%.E U U A # > D U U U U A #     + c n ",
"p u X - ] %.E U U U U E O.%.E U U A # $ D U U U U D #     X i p ",
"  X . * ^ ' ! E U U L R O.&.E U U A $ $ D U U U A M @ . + + o   ",
". u +   * 8 {  .T U U R %.&.E U Y D # $ D U U D 3 @   O z c p   ",
". u < +   - +.%.E L U T ( ` P C Z M @ $ D U Y D $     + z m a . ",
". a v k + - @.%.T U U F 5 % O O O O   > D U U A $     + x n d . ",
"  e f p X * ^ / S V L F t 1 1 1 1 1 1 y H L A M #     X p f e . ",
"+ ; ; +     & 7 s Q T U H F F H D J J K U F 2 O     . + ; ; + + ",
"x x x k , .   - ~ / S C L U Y U U U C V C M #       ; l x x x x ",
"n n n n x :     % & @ 1 A U U U U A 1 @ O O         : c n n n n ",
"n n n n v , . ; ; +   @ M A Z Z Z M @       + ; ; X : v n n n n ",
"g h g h g + q a a i X   @ # @ # @ @       . i a a w + f h g h h ",
". .   . .   . . .                           .   . .   . . .   . "
};
