/* XPM */
static char *_8f28195cb8c4d6bc885a554c78096d8Syeta0XJkaRlMErO[] = {
/* columns rows colors chars-per-pixel */
"32 32 124 2 ",
"   c #000000",
".  c #0B0400",
"X  c #090809",
"o  c #160D00",
"O  c #1D0C00",
"+  c #171100",
"@  c #191301",
"#  c #210E00",
"$  c #271100",
"%  c #2B1300",
"&  c #241C01",
"*  c #2A1C01",
"=  c #321A00",
"-  c #381900",
";  c #2D2201",
":  c #302303",
">  c #362A01",
",  c #3C2F02",
"<  c #3E3002",
"1  c #492B01",
"2  c #552900",
"3  c #453402",
"4  c #493303",
"5  c #4D3B03",
"6  c #574302",
"7  c #AE4F00",
"8  c #B55100",
"9  c #BD5400",
"0  c #C35700",
"q  c #C45800",
"w  c #CC5D00",
"e  c #D55F00",
"r  c #D46100",
"t  c #DC6300",
"y  c #D06801",
"u  c #E26500",
"i  c #E56C01",
"p  c #ED6A00",
"a  c #F56D00",
"s  c #F86F00",
"d  c #E57701",
"f  c #EE7601",
"g  c #E77902",
"h  c #F57300",
"j  c #F97201",
"k  c #F67A01",
"l  c #F97B01",
"z  c #CC9C06",
"x  c #CD9B08",
"c  c #D09305",
"v  c #D79B05",
"b  c #F78102",
"n  c #F88402",
"m  c #F88804",
"M  c #E09E05",
"N  c #D7A406",
"B  c #D9A506",
"V  c #DFA906",
"C  c #E4A506",
"Z  c #E3AC06",
"A  c #EDAB06",
"S  c #FCA705",
"D  c #FCA505",
"F  c #F1AF07",
"G  c #FCAA05",
"H  c #FEAC06",
"J  c #FDAF06",
"K  c #E9B106",
"L  c #E9B206",
"P  c #EAB206",
"I  c #EBB306",
"U  c #EDB107",
"Y  c #ECB306",
"T  c #ECB406",
"R  c #EDB406",
"E  c #EDB407",
"W  c #EDB507",
"Q  c #EEB507",
"!  c #EFB607",
"~  c #EDB408",
"^  c #EEB408",
"/  c #F2B006",
"(  c #F0B607",
")  c #F0B707",
"_  c #FDB106",
"`  c #FDB206",
"'  c #FDB406",
"]  c #FDB506",
"[  c #FEB606",
"{  c #FFB606",
"}  c #FFB706",
"|  c #F1B807",
" . c #F4B907",
".. c #F5BA07",
"X. c #F6BB07",
"o. c #FEB906",
"O. c #FFB906",
"+. c #FEBA06",
"@. c #FFBA06",
"#. c #FFBB06",
"$. c #FEBA07",
"%. c #F8BC07",
"&. c #F9BD07",
"*. c #FABD07",
"=. c #FABE07",
"-. c #FBBE07",
";. c #FFBC07",
":. c #FCBF07",
">. c #FDBF07",
",. c #FFBE07",
"<. c #FFBF07",
"1. c #F0B508",
"2. c #F0B608",
"3. c #F2B708",
"4. c #FDB808",
"5. c #FEBA08",
"6. c #FFBC08",
"7. c #FDC007",
"8. c #FEC007",
"9. c #FFC007",
"0. c #FFC107",
"q. c #FFC207",
"w. c #FFC307",
"e. c #FFC407",
/* pixels */
"  # t s a a a a a a a a a a a a a a a a a a a a a a a a a u =   ",
"- 2 d b b b b l b b b b b b b b b b b b b b b b b b b b b g =   ",
"p f ' ,.8.8.8.6.8.8.8.6.,.,.,.8.,.8.,.,.8.8.,.8.,.8.8.8.6.^ ;   ",
"a k O.%.x x %.e.8.8.8.8.8.8.8.8.8.8.8.8.8.8.8.8.8.%.x x ..^ :   ",
"a k ,.V & & Z 8.8.8.e.8.8.8.e.8.8.e.8.8.8.8.e.8.8.I : @ N 2.:   ",
"a k ,.Z 5 5 K 8.8.6.` ` ` J ` ` J ` ` ` 8.8.8.8.e.^ 6 3 V ^ :   ",
"a k O.7.X.X.8.8.e.5.l j j j j j j j h l O.8.8.8.8.8.X...8.^ :   ",
"a k O.8.8.8.8.8.` S k p q 9 0 9 9 q p j D ` 8.8.8.8.8.8.8.^ ;   ",
"a k O.8.8.e.8.5.k h a t % .     . # e a h l 5.e.e.8.8.8.e.^ :   ",
"a k O.8.8.8.e.5.k a a t $   : , > 4 t s a h c x X.8.e.8.8.^ :   ",
"a k O.8.8.e.8.5.k a a t O @ x ..( F k a h u = @ B e.8.8.e.^ ;   ",
"a k O.e.8.8.8.5.k a a t O @ V 8.8.O.k a h t $ o N e.8.8.8.^ :   ",
"a k O.8.8.e.8.5.k a h t O @ B e.8.O.k a h u $ @ N e.8.8.e.^ ;   ",
"a k O.e.8.8.8.6.m k w 7 O @ B 8.' J k a a u $ o N e.e.8.8.^ :   ",
"a k O.8.8.8.8.8.6.V * .   @ B 5.l h s s j u $ o N 8.8.e.8.~ :   ",
"a k O.8.e.8.e.8.8.Z 5 : : 4 C H k p w 0 0 8 O @ N e.8.8.e.~ :   ",
"a k O.8.e.8.e.8.e.8.3.2.3.A k h a t % . . .   o N e.8.8.e.^ ;   ",
"a l O.e.8.8.8.8.8.8.8.e.8.O.k a h t # . ; ; ; 3 V 8.8.e.e.^ :   ",
"a k O.8.8.8.e.8.8.8.8.8.e.O.k a s t # + z | ! ^ 7.8.e.8.8.^ :   ",
"a k O.e.8.e.8.8.8.e.e.8.8.O.m k r 8 O + B e.8.e.8.8.8.8.8.^ :   ",
"a k O.8.e.8.8.8.8.8.8.8.8.8.8.A : .   + N 8.e.8.e.8.e.8.e.^ ;   ",
"a k O.e.8.8.8.e.8.e.8.e.8.8.' C 1 % ; 3 Z e.8.8.8.8.8.8.8.^ :   ",
"a k +.8.e.8.e.8.e.8.8.8.8.O.b h i i A ^ -.8.8.8.8.8.e.8.e.^ :   ",
"a l O.8.8.8.8.8.8.8.8.e.8.O.k a s h v N X.8.8.e.8.e.8.8.8.^ :   ",
"a k +.7.e.e.8.8.8.e.8.e.8.O.k a s t * ; V 8.8.8.8.8.e.e.8.^ ;   ",
"a k +.7.N N %.e.8.8.8.8.8.,.m h r 8 O + B e.e.8.8.8.B B -.^ :   ",
"a k +.V ; ; Z 8.8.e.8.8.8.8.,.Z : .   + B e.8.e.e.I > & N 3.:   ",
"a k +.Z < < Z e.8.8.e.8.8.8.8.I 3 * & < V 8.8.8.8.^ 3 > B ^ :   ",
"a l ,.8.I I 8.e.e.8.e.e.e.8.8.8.R I I I 8.e.8.e.e.8.^ I e.^ ;   ",
"r y v B B B B N N B N N N B B N B B N N B N N B N N B B B x *   ",
"o o + + + + + + + + + + + + + + + + + + + + + + @ + + + @ @     ",
"X X X X X X X X X X X X X X X X X X X X X X X X X X X X X X X X "
};
