/* XPM */
static char *_30d5a99e88e41628c81f94288ce3e65OSm06MCbrYwQjXHb[] = {
/* columns rows colors chars-per-pixel */
"32 32 189 2 ",
"   c #020101",
".  c #0B0401",
"X  c #0B0905",
"o  c #05030E",
"O  c #0A0A0A",
"+  c #1A0705",
"@  c #140A05",
"#  c #1B0A00",
"$  c #120B09",
"%  c #1B130D",
"&  c #0D0510",
"*  c #1B1716",
"=  c #230D00",
"-  c #2A0F00",
";  c #380603",
":  c #2D1101",
">  c #261309",
",  c #351401",
"<  c #3C1600",
"1  c #361A08",
"2  c #231511",
"3  c #221914",
"4  c #2C1B13",
"5  c #241C1D",
"6  c #371B13",
"7  c #1F200E",
"8  c #3D210F",
"9  c #2F2016",
"0  c #352113",
"q  c #201F20",
"w  c #262323",
"e  c #352725",
"r  c #333435",
"t  c #3B3836",
"y  c #3D3D3D",
"u  c #4C0403",
"i  c #510404",
"p  c #520806",
"a  c #4A1504",
"s  c #441901",
"d  c #4C1C00",
"f  c #531E00",
"g  c #591A13",
"h  c #690302",
"j  c #690E07",
"k  c #720302",
"l  c #790606",
"z  c #69140A",
"x  c #44220E",
"c  c #572000",
"v  c #5D2301",
"b  c #5F2A0C",
"n  c #462716",
"m  c #622401",
"M  c #692700",
"N  c #6D2800",
"B  c #6F2E08",
"V  c #722A01",
"C  c #7C2E00",
"Z  c #642118",
"A  c #4F052F",
"S  c #47352C",
"D  c #513529",
"F  c #443C3C",
"G  c #6B6E1A",
"H  c #5A442D",
"J  c #6D533B",
"K  c #74563B",
"L  c #785439",
"P  c #7C5B3D",
"I  c #736F25",
"U  c #37045C",
"Y  c #0E0063",
"T  c #11016E",
"R  c #2E077F",
"E  c #4C0443",
"W  c #3F4040",
"Q  c #474848",
"!  c #4E5054",
"~  c #5D5D5E",
"^  c #615E5C",
"/  c #7E6143",
"(  c #666565",
")  c #686764",
"_  c #737373",
"`  c #797774",
"'  c #7B7B7B",
"]  c #8B0A07",
"[  c #8D1408",
"{  c #98170B",
"}  c #A70704",
"|  c #AB0102",
" . c #B30402",
".. c #BC0404",
"X. c #B80804",
"o. c #BC0909",
"O. c #812F00",
"+. c #8D3502",
"@. c #913500",
"#. c #9A3A02",
"$. c #A43D01",
"%. c #AB3F00",
"&. c #950236",
"*. c #8A3030",
"=. c #B32526",
"-. c #C50302",
";. c #CC0303",
":. c #C20804",
">. c #D30202",
",. c #DA0305",
"<. c #EC020C",
"1. c #F70101",
"2. c #FF0000",
"3. c #FC0901",
"4. c #ED2E20",
"5. c #FC2C2C",
"6. c #AD4101",
"7. c #B34300",
"8. c #BC4600",
"9. c #8C6F30",
"0. c #C04700",
"q. c #C44900",
"w. c #CA4B00",
"e. c #F45C1C",
"r. c #D37A1A",
"t. c #A7026F",
"y. c #C60241",
"u. c #AD4F4F",
"i. c #886645",
"p. c #946E49",
"a. c #9A734D",
"s. c #A0774D",
"d. c #A77C51",
"f. c #897073",
"g. c #B47976",
"h. c #F64642",
"j. c #7E841D",
"k. c #AF8255",
"l. c #B78759",
"z. c #AE856F",
"x. c #C49856",
"c. c #D59F69",
"v. c #DCA46A",
"b. c #E7AC6F",
"n. c #F3B76C",
"m. c #EAAE71",
"M. c #F0B474",
"N. c #FABB75",
"B. c #FEBE79",
"V. c #FFC178",
"C. c #120282",
"Z. c #15028D",
"A. c #1A028A",
"S. c #150092",
"D. c #2C1D8C",
"F. c #1601A2",
"G. c #1A01AB",
"H. c #1E0ABD",
"J. c #2D02AC",
"K. c #3F26BD",
"L. c #6701B7",
"P. c #6428BB",
"I. c #1E02C0",
"U. c #2301DA",
"Y. c #2401E0",
"T. c #2802F5",
"R. c #2701FF",
"E. c #2A01FF",
"W. c #4102E2",
"Q. c #7F8183",
"!. c #838484",
"~. c #8B8989",
"^. c #959595",
"/. c #99999A",
"(. c #AAAAAA",
"). c #ABB0B0",
"_. c #B5B5B5",
"`. c #BBBCBB",
"'. c #FA8080",
"]. c #D9BFA2",
"[. c #FBB1B1",
"{. c #ECCFAF",
"}. c #F2D6B7",
"|. c #C4C4C4",
" X c #D4D4D4",
".X c #DDDEDF",
"XX c #FFE2C2",
"oX c #E9E9E9",
"OX c white",
/* pixels */
"# # # # # . . # # # = # # z { [ [ z # # # # # # # .   # # # # # ",
". < N M m M M m m >   u k :.3.3.3.:.u , : # M M M M M M M M s   ",
". C w.w.w.w.w.w.+.j h ;.2.2.2.2.2.5.*.c v < w.w.w.w.w.w.w.w.O.. ",
". C w.w.w.w.q.+.j ,.2.2.2.3.3.2.5.[./.x v , 0.w.w.q.w.w.w.w.C . ",
". C w.q.q.q.+.j ,.2.2.2.2.;.} | u.).( : < , 0.q.q.q.q.q.w.w.C . ",
"  = < < s , # ;.2.2.2.;. .l u i p p p p ; @ < < < < s s < < =   ",
"c c c f - ; i ,.2.;...h u ] X. .|  . .;.} . : c f : . f f f f f ",
"w.w.w.7.; >.1.2.;.Z n { X.u 2 S F S 4 p [ , v q.w.V : q.w.w.w.w.",
"w.w.w.6.; ,.2.>.g l.M.L % 2 a.}..X].p.X m 8.q.q.w.V - 8.w.w.w.q.",
"w.q.w.7.a ..;.; / b.V.M.D i.N.XXQ./ p., #.7.w.w.w.V - 8.w.w.w.w.",
"d d d d < + + X K v.n.N.H p.B.{.` i.d.4 0 8 f d d = . d d d d d ",
"  - s s s < .   $ P a.b.J s.B.i./ c.v.v.v.a.$ s s a d s s s -   ",
". C w.w.w.8.:     $ 2 l.b.n.V.i.& % H d.d.K s q.q.w.q.w.w.w.C . ",
". C w.w.w.q.$.: .   H a.v.N.N.m.K   X % % x 7.q.w.w.w.w.w.w.C . ",
". C w.w.w.w.w.6.#.> 2 6 P k.c.N.b.P       , w.w.w.w.w.w.w.w.O.. ",
"  , m v v v m v 6 R &.-.z 4 K l.l.a.S   . # f m m f m v v m ,   ",
", , , , , . + o C.t.<.2.>...z 4 9 4 ) ' o O 1 , , # . , , , , , ",
"q.q.q.q.8.: + & J.y.2.2.2.2.,.| | u. XoX).z.b 8.q.M - 8.q.0.q.q.",
"w.w.w.w.7.1 9.q J.y.2.2.2.2.2.2.2.=./.OXOX_.$ v q.N : 8.w.w.w.w.",
"w.w.w.w.7.1 x.e G.E ;.2.2.2.2.2.2.>.*.~ ~ Q   X x : : q.w.w.w.w.",
"V V N V m > x.e H.G.A h ;.2.2.2. .h ;               # N V V V V ",
"  # = - = % x.e H.T.G.A.A k k k E Z.Z.Z.Z.Y 7 j.G X     = - #   ",
". V q.q.6.> H * H.T.R.E.G.C.C.C.I.E.E.E.E.K.9.r.I Q Q F b 7.V . ",
". C 8.V m .   o H.T.T.E.E.E.E.E.R.R.E.E.E.P.e.;.% y ! _ 3 %.O.. ",
". O.6.@   w O o I.T.R.E.E.E.E.E.E.E.E.E.R.L.,.k X r t W % %.O.. ",
"  c N X t !.W o T S.Y.E.E.E.E.E.E.E.E.E.W.t.-.& y ` _ r $ N f . ",
"# # O t ^.`./.W O Q D.G.U.E.E.E.U.F.F.J.t.<.] Q !.^.^._ % # # = ",
"8.@.* ' |. X|.!.w g.` ! D.G.G.G.U i i h | k q Q.(. X X^.t B %.7.",
"q.6.5 ' _..X`.!.5 o.'.[.f.Q ! r j 4.h.u.D ; q !.`.oXoX_.' 3 $.w.",
"w.7.x ^ !.).~.' 5 ] :.o.g.`.`.~.x z.`.].g.] n ~ ~._.).~.^ x 7.w.",
"+.@.V % ~ ( ( ~ *   . . o O O O   O & & O , m * ( ( ( ~ * V @.@.",
".       X O O O                             X   O O O O .   . . "
};
