/* XPM */
static char *e5c073a11ce44c49f498c56280a16a31kF5XljqbLy9U56jv[] = {
/* columns rows colors chars-per-pixel */
"32 32 152 2 ",
"   c #DA5D1D",
".  c #E37543",
"X  c #FEC0B5",
"o  c #FFC4BB",
"O  c #FFC3BA",
"+  c #FFC5BC",
"@  c #F6BCB4",
"#  c #3D2F2D",
"$  c black",
"%  c #DE682F",
"&  c #E57C4D",
"*  c #FAB5A5",
"=  c #FCBBAE",
"-  c #FFC2B9",
";  c #FEC2B9",
":  c #EBB4AB",
">  c #DBA7A0",
",  c #372A29",
"<  c #FBB7A8",
"1  c #F4A58C",
"2  c #E06E37",
"3  c #E67E51",
"4  c #FEBFB4",
"5  c #F5BCB3",
"6  c #53403D",
"7  c #201918",
"8  c #0B0909",
"9  c #020303",
"0  c #FFC5BE",
"q  c #F8AF9B",
"w  c #DF6A32",
"e  c #E47948",
"r  c #FCBCAF",
"t  c #EDB5AD",
"y  c #DCA8A0",
"u  c #322725",
"i  c gray1",
"p  c #FAB6A6",
"a  c #E1703B",
"s  c #E67E50",
"d  c #FDBEB3",
"f  c #F3BAB2",
"g  c #52403D",
"h  c #241C1B",
"j  c #FFC5BD",
"k  c #F8B09D",
"l  c #E37645",
"z  c #FDBDB0",
"x  c #EFB7AE",
"c  c #DCA8A1",
"v  c #2E2422",
"b  c #FAB4A4",
"n  c #F4A58D",
"m  c #E2723E",
"M  c #FDBDB2",
"N  c #FFC3BB",
"B  c #F0B8B0",
"V  c #523F3C",
"C  c #271E1D",
"Z  c #F9B19F",
"A  c #DF6A31",
"S  c #E37441",
"D  c #FDBCB0",
"F  c #FEBDB0",
"G  c #EBAFA3",
"H  c #2D2220",
"J  c #F9B3A1",
"K  c #F4A68D",
"L  c #E1713C",
"P  c #E2713D",
"I  c #D26938",
"U  c #2B170D",
"Y  c #000202",
"T  c #F9B2A0",
"R  c #DD652A",
"E  c #DA5D1F",
"W  c #DB5E1F",
"Q  c #DC5E1F",
"!  c #CB571D",
"~  c #2A1308",
"^  c #010203",
"/  c #FFC4BC",
"(  c #DE662C",
")  c #DB5F20",
"_  c #DB5F21",
"`  c #DC5F21",
"'  c #CC591F",
"]  c #000203",
"[  c #FDC3BA",
"{  c #F7B09D",
"}  c #DC652B",
"|  c #D95E20",
" . c #D95E21",
".. c #DA5F21",
"X. c #CA581F",
"o. c #2B1409",
"O. c #DEAAA2",
"+. c #604A47",
"@. c #533C36",
"#. c #4B2410",
"$. c #4A210D",
"%. c #4F230E",
"&. c #873B15",
"*. c #8C3D16",
"=. c #1F0F07",
"-. c #CC9C95",
";. c #0E0B0B",
":. c #000102",
">. c #0F0805",
",. c #B7501C",
"<. c #D35C20",
"1. c #2E1509",
"2. c #654D4A",
"3. c #4A3936",
"4. c #080707",
"5. c #080504",
"6. c #411D0C",
"7. c #53250E",
"8. c #833A15",
"9. c #893C16",
"0. c #211007",
"q. c #FFC6BD",
"w. c #C99A92",
"e. c #0D0704",
"r. c #B44E1C",
"t. c #D75D20",
"y. c #321709",
"u. c #69504D",
"i. c #4C3B38",
"p. c #080706",
"a. c #431E0C",
"s. c #57270F",
"d. c #7F3814",
"f. c #863B15",
"g. c #221007",
"h. c #FFC7BE",
"j. c #C59790",
"k. c #090807",
"l. c #0A0604",
"z. c #B14D1B",
"x. c #DA5E21",
"c. c #35180A",
"v. c #674F4C",
"b. c #4F3D3A",
"n. c #070606",
"m. c #070504",
"M. c #451F0C",
"N. c #5A280F",
"B. c #7C3614",
"V. c #AC4B1A",
"C. c #E36222",
"Z. c white",
/* pixels */
"  . X o O O O O O O O O O O O O O O O O O O O O O O O O + @ # $ ",
"% & * = - O O O O O O O O O O O O O O O O O O O O O O ; : > , $ ",
"< 1 2 3 4 o O O O O O O O O O O O O O O O O O O O O o 5 6 7 8 9 ",
"0 q w e * r - O O O O O O O O O O O O O O O O O O ; t y u $ i i ",
"O X p 1 a s d o O O O O O O O O O O O O O O O O o f g h 8 i i i ",
"O O j k w l p z - O O O O O O O O O O O O O O ; x c v $ 9 i i i ",
"O O O X b n m s M o N N N N N N N N N N N N o B V C 8 9 i i i i ",
"O O O O j Z A S p D r r r r r r r r r r r r F G H $ 9 i i i i i ",
"O O O O O X J K . L L L L L L L L L L L L L P I U Y i i i i i i ",
"O O O O O O j T R E W W W W W W W W W W W W Q ! ~ ^ i i i i i i ",
"O O O O O O / Z ( ) _ _ _ _ _ _ _ _ _ _ _ _ ` ' ~ ^ i i i i i i ",
"O O O O O O / Z ( ) _ _ _ _ _ _ _ _ _ _ _ _ ` ' ~ ^ i i i i i i ",
"O O O O O O / Z ( ) _ _ _ _ _ _ _ _ _ _ _ _ ` ' ~ ^ i i i i i i ",
"O O O O O O / Z ( ) _ _ _ _ _ _ _ _ _ _ _ _ ` ' ~ ^ i i i i i i ",
"O O O O O O / Z ( ) _ _ _ _ _ _ _ _ _ _ _ _ ` ' ~ ^ i i i i i i ",
"O O O O O O / Z ( ) _ _ _ _ _ _ _ _ _ _ _ _ ` ' ~ ^ i i i i i i ",
"O O O O O O / Z ( ) _ _ _ _ _ _ _ _ _ _ _ _ ` ' ~ ^ i i i i i i ",
"O O O O O O / Z ( ) _ _ _ _ _ _ _ _ _ _ _ _ ` ' ~ ^ i i i i i i ",
"O O O O O O / Z ( ) _ _ _ _ _ _ _ _ _ _ _ _ ` ' ~ ^ i i i i i i ",
"O O O O O O / Z ( ) _ _ _ _ _ _ _ _ _ _ _ _ ` ' ~ ^ i i i i i i ",
"O O O O O O / Z ( ) _ _ _ _ _ _ _ _ _ _ _ _ ` ' ~ ^ i i i i i i ",
"O O O O O O / Z ( ) _ _ _ _ _ _ _ _ _ _ _ _ ` ' ~ ^ i i i i i i ",
"O O O O O O / Z ( ) _ _ _ _ _ _ _ _ _ _ _ _ ` ' ~ ] i i i i i i ",
"O O O O O O [ { } |  . . . . . . . . . . . ...X.o.9 i i i i i i ",
"O O O O + O.+.@.#.$.$.$.$.$.$.$.$.$.$.$.$.$.$.%.&.*.=.^ i i i i ",
"O O O O + -.;.$ :.:.:.:.:.:.:.:.:.:.:.:.:.:.:.>.,.<.1.^ i i i i ",
"O O + c 2.3.4.i i i i i i i i i i i i i i i i 5.6.7.8.9.0.^ i i ",
"O O q.w.8 $ i i i i i i i i i i i i i i i i i i :.e.r.t.y.] i i ",
"+ > u.i.p.i i i i i i i i i i i i i i i i i i i i 5.a.s.d.f.g.^ ",
"h.j.k.$ i i i i i i i i i i i i i i i i i i i i i i :.l.z.x.c.:.",
"v.b.n.i i i i i i i i i i i i i i i i i i i i i i i i m.M.N.B.&.",
"$ $ i i i i i i i i i i i i i i i i i i i i i i i i i i :.5.V.C."
};
