/* XPM */
static char *b8de1cebf8474930fd492a1c48e9e75ar3RCYCP0xTUaerD9[] = {
/* columns rows colors chars-per-pixel */
"32 32 256 2 ",
"   c black",
".  c #010101",
"X  c #020202",
"o  c gray1",
"O  c #040404",
"+  c gray2",
"@  c #060606",
"#  c #070707",
"$  c gray3",
"%  c #090909",
"&  c gray4",
"*  c #0B0B0B",
"=  c #0C0C0C",
"-  c gray5",
";  c #0E0E0E",
":  c gray6",
">  c #101010",
",  c #111111",
"<  c gray7",
"1  c #131313",
"2  c gray8",
"3  c #151515",
"4  c #161616",
"5  c gray9",
"6  c #181818",
"7  c #191919",
"8  c gray10",
"9  c #1B1B1B",
"0  c gray11",
"q  c #1D1D1D",
"w  c #1E1E1E",
"e  c gray12",
"r  c #202020",
"t  c gray13",
"y  c #222222",
"u  c #232323",
"i  c gray14",
"p  c #252525",
"a  c gray15",
"s  c #272727",
"d  c #282828",
"f  c gray16",
"g  c #2A2A2A",
"h  c gray17",
"j  c #2C2C2C",
"k  c #2D2D2D",
"l  c gray18",
"z  c #2F2F2F",
"x  c gray19",
"c  c #313131",
"v  c #323232",
"b  c gray20",
"n  c #343434",
"m  c #353535",
"M  c gray21",
"N  c #373737",
"B  c gray22",
"V  c #393939",
"C  c #3A3A3A",
"Z  c gray23",
"A  c #3C3C3C",
"S  c gray24",
"D  c #3E3E3E",
"F  c #3F3F3F",
"G  c gray25",
"H  c #414141",
"J  c gray26",
"K  c #434343",
"L  c #444444",
"P  c gray27",
"I  c #464646",
"U  c gray28",
"Y  c #484848",
"T  c #494949",
"R  c gray29",
"E  c #4B4B4B",
"W  c #4C4C4C",
"Q  c gray30",
"!  c #4E4E4E",
"~  c gray31",
"^  c #505050",
"/  c #515151",
"(  c gray32",
")  c #535353",
"_  c gray33",
"`  c #555555",
"'  c #565656",
"]  c gray34",
"[  c #585858",
"{  c gray35",
"}  c #5A5A5A",
"|  c #5B5B5B",
" . c gray36",
".. c #5D5D5D",
"X. c gray37",
"o. c #5F5F5F",
"O. c #606060",
"+. c gray38",
"@. c #626262",
"#. c gray39",
"$. c #646464",
"%. c #656565",
"&. c gray40",
"*. c #676767",
"=. c #686868",
"-. c DimGray",
";. c #6A6A6A",
":. c gray42",
">. c #6C6C6C",
",. c #6D6D6D",
"<. c gray43",
"1. c #6F6F6F",
"2. c gray44",
"3. c #717171",
"4. c #727272",
"5. c gray45",
"6. c #747474",
"7. c gray46",
"8. c #767676",
"9. c #777777",
"0. c gray47",
"q. c #797979",
"w. c gray48",
"e. c #7B7B7B",
"r. c #7C7C7C",
"t. c gray49",
"y. c #7E7E7E",
"u. c gray50",
"i. c #808080",
"p. c #818181",
"a. c gray51",
"s. c #838383",
"d. c #848484",
"f. c gray52",
"g. c #868686",
"h. c gray53",
"j. c #888888",
"k. c #898989",
"l. c gray54",
"z. c #8B8B8B",
"x. c gray55",
"c. c #8D8D8D",
"v. c #8E8E8E",
"b. c gray56",
"n. c #909090",
"m. c gray57",
"M. c #929292",
"N. c #939393",
"B. c gray58",
"V. c #959595",
"C. c gray59",
"Z. c #979797",
"A. c #989898",
"S. c gray60",
"D. c #9A9A9A",
"F. c #9B9B9B",
"G. c gray61",
"H. c #9D9D9D",
"J. c gray62",
"K. c #9F9F9F",
"L. c #A0A0A0",
"P. c gray63",
"I. c #A2A2A2",
"U. c gray64",
"Y. c #A4A4A4",
"T. c #A5A5A5",
"R. c gray65",
"E. c #A7A7A7",
"W. c gray66",
"Q. c #A9A9A9",
"!. c #AAAAAA",
"~. c gray67",
"^. c #ACACAC",
"/. c gray68",
"(. c #AEAEAE",
"). c #AFAFAF",
"_. c gray69",
"`. c #B1B1B1",
"'. c #B2B2B2",
"]. c gray70",
"[. c #B4B4B4",
"{. c gray71",
"}. c #B6B6B6",
"|. c #B7B7B7",
" X c gray72",
".X c #B9B9B9",
"XX c gray73",
"oX c #BBBBBB",
"OX c #BCBCBC",
"+X c gray74",
"@X c gray",
"#X c gray75",
"$X c #C0C0C0",
"%X c #C1C1C1",
"&X c gray76",
"*X c #C3C3C3",
"=X c gray77",
"-X c #C5C5C5",
";X c #C6C6C6",
":X c gray78",
">X c #C8C8C8",
",X c gray79",
"<X c #CACACA",
"1X c #CBCBCB",
"2X c gray80",
"3X c #CDCDCD",
"4X c #CECECE",
"5X c gray81",
"6X c #D0D0D0",
"7X c gray82",
"8X c #D2D2D2",
"9X c LightGray",
"0X c gray83",
"qX c #D5D5D5",
"wX c gray84",
"eX c #D7D7D7",
"rX c #D8D8D8",
"tX c gray85",
"yX c #DADADA",
"uX c gray86",
"iX c gainsboro",
"pX c #DDDDDD",
"aX c gray87",
"sX c #DFDFDF",
"dX c gray88",
"fX c #E1E1E1",
"gX c #E2E2E2",
"hX c gray89",
"jX c #E4E4E4",
"kX c gray90",
"lX c #E6E6E6",
"zX c #E7E7E7",
"xX c gray91",
"cX c #E9E9E9",
"vX c #EAEAEA",
"bX c gray92",
"nX c #ECECEC",
"mX c gray93",
"MX c #EEEEEE",
"NX c #EFEFEF",
"BX c gray94",
"VX c #F1F1F1",
"CX c gray95",
"ZX c #F3F3F3",
"AX c #F4F4F4",
"SX c gray96",
"DX c #F6F6F6",
"FX c gray97",
"GX c #F8F8F8",
"HX c #F9F9F9",
"JX c gray98",
"KX c #FBFBFB",
"LX c gray99",
"PX c #FDFDFD",
"IX c #FEFEFE",
"UX c white",
/* pixels */
"b J C v I Q b S F M | ( M v / ! v T P M I X.H l H C A J Q +.F n ",
"L P 7.U ' p.E R t./ n I :.' n Z S M } *.F V T } ! Z S B =.u.;.Z ",
"^ R w.Y J 3.T U q.*.F $.j.,.S &.6.F @.3.| V 6.g.-.S 6.] Z #.*.D ",
"I B E G v L H n L / S R &.) L f.7.G G :.{ Z ;.<...D -.} V b P c ",
"^ B T ] H U q.>.Y B R A N A B { _ F z A H N A F G m V H U A L _ ",
"7.D 9.i.R ! a.6.[ E j.%.Z X.` n K $.` S 2.@.V O.%.G { f.9.Y ..i.",
"O.D / *.~ H %.X.Q [ y.:.K >.>.Z &.d.| J e.#.N 7.8.P U $.^ C ) 1.",
"H Y B B J V V A Z Z ..o.G _ } S B E P M Y W v  .:.Q v C ^ ^ N L ",
"%.a.,.P W e.>.K ^ } N S K C Z ^ ] C ^ %.N A U V J E | A 3.q.I R ",
"` w.-.! ' w.:.T X.y.~ G t.-.Z $.0.K _ 7.D &.s.O.m _ 0.W J =.R $.",
"Z %...I I $.o.P W | H m [ _ N B ! D P >.J >.2._ D N F ! v D S H ",
"J V D ~ D V J L m J 7.{ m E 1.E c D b H B Z H S :.1.H v P P C U ",
"d.} K s.:.D } y./ J y.&.C 4.u.E } r.+.C  .*.@.F | 7.( T k.o.S p.",
"1._ H q.:.F ) 9._ z T ) V Y ) W z.7.] n #.y.0._ Z o.T @.a.{ F 3.",
"I I B ` ..F A ] I E Z J ' G V S X.( Q ( C {  .~ v B B K / P m R ",
"S 0.} v F E Z G w.a.R ] f.X.S Q A D u.7.M N S S C ;.$.D J 4.@.D ",
"v  .} P i.a.^ B o.+.K ' q.` Y i...D 3.-.G >.t.$.C 2.4.R H w.9.) ",
"V C F F } } Y J B J A K ) K A +.X.D ( } A Y ! W m Y _ K B E ' U ",
"p.>.F K U H D r._ H =.U Z =.( c V Z b A o.[ U Z *.K A 9.&.b J W ",
"7.X.V  .e.o.B ,.U ^ y.` H d.%.C ..7._ m 1.5.X.Z 6.( G s.Q J h.u.",
"D D K M H ! m S B D o.E m _ T K x.>.L n C ( U M ] L b E n E i.8.",
"V W s.@.N n B ! ] G b A H C B n ! S [ 0.G n P V b U D B ! B I I ",
"U L r._ F [ C 4.e.:.P ! k.&.S ! N R m.8.J { h. .H p.} L h.;.Z M ",
"K n / M ,.p.V _ e.-.K ^ a.O.J t.Q G [ R V $.7.[ G y.o.Z ;. .F x ",
"F N n b &.-.G v I J C n ~ T S %.U A J L M Q o.E Z ;.( b b b S ! ",
"u.^ Q { n S S U E S Y ' V B b V M 2.g.9.L j m A B M V o.2.) J q.",
"2.R o.y.#.M X.h.7.Y ~ t...C 2.<.H ` >.( Z o.F ..8.` N 8.a...m :.",
"G V ' :.{ V @.w.+.S Z ' H b :.8.( n Z V n X.D / q.[ b R o.) n J ",
"F M v M N V Z ) F Q K m [ T G / S M ' 7.P x N b I V I v c Z A v ",
"G / 9.U Q 8.W b ` n.o.A a.&.b Z ^ H Q 7.E I ,.Q m 2.h.K  .y.+.x ",
"M >.r.T | r.*.Z ( :.Y v R R H r.u.} v / G Q <.E L g.:.F ..p.=.N ",
"v +.&.H | 2.~ C k B Z I V N n +.:.~ c x B l M C F %.~ C L <._ m "
};
