/* XPM */
static char *b961cc503402403ec1c5ff951f3a9398UVt1fnUy4HoHtwqW[] = {
/* columns rows colors chars-per-pixel */
"32 32 100 2 ",
"   c #020202",
".  c #070808",
"X  c #0A0A0A",
"o  c #120E01",
"O  c #161101",
"+  c #1B1401",
"@  c #1F1801",
"#  c #0F1010",
"$  c #131313",
"%  c #17181A",
"&  c #1B1B1B",
"*  c #201700",
"=  c #221901",
"-  c #2D2201",
";  c #342701",
":  c #342801",
">  c #3C2D01",
",  c #342C15",
"<  c #3A321A",
"1  c #222222",
"2  c #2C2C2C",
"3  c #32312F",
"4  c #343434",
"5  c #383735",
"6  c #3A3937",
"7  c #3C3C3C",
"8  c #483602",
"9  c #434343",
"0  c #4B4B4B",
"q  c #535353",
"w  c #5C5C5C",
"e  c #646464",
"r  c #6C6C6C",
"t  c #737373",
"y  c #7C7C7C",
"u  c #BC8E05",
"i  c #C49505",
"p  c #CB9906",
"a  c #D6A105",
"s  c #DAA506",
"d  c #DEA806",
"f  c #D2A51D",
"g  c #E3AC06",
"h  c #E8AF06",
"j  c #E7AF09",
"k  c #EAB106",
"l  c #E9B109",
"z  c #F0B607",
"x  c #FBBE07",
"c  c #FCBF08",
"v  c #D7A921",
"b  c #DEAF20",
"n  c #E4B72F",
"m  c #FFC106",
"M  c #FFC20B",
"N  c #FEC61E",
"B  c #FFC721",
"V  c #FFC925",
"C  c #FDCC3C",
"Z  c #FACC42",
"A  c #FFD041",
"S  c #818181",
"D  c #A09C90",
"F  c #B6A984",
"G  c #B6B7B9",
"H  c #BABBBC",
"J  c #D2CCB9",
"K  c #DDD4BC",
"L  c #C3C3C5",
"P  c #C9C9CA",
"I  c #D7D1C1",
"U  c #D9D2C0",
"Y  c #DFD9C7",
"T  c #DCDCDE",
"R  c #DDDEDF",
"E  c #E4DCC2",
"W  c #E2DBC5",
"Q  c #E2DCC8",
"!  c #E4DDCA",
"~  c #E1DCCE",
"^  c #E8E1CF",
"/  c #FFF2C7",
"(  c #FFF4CE",
")  c #E7E2D2",
"_  c #FFF5D1",
"`  c #FFF7DE",
"'  c #FFF8DF",
"]  c #DEDFE1",
"[  c #E0E0E2",
"{  c #E2E3E5",
"}  c #E4E5E7",
"|  c #E6E7E8",
" . c #FFF7E1",
".. c #FFFAE0",
"X. c #FFF9E3",
"o. c #FFF9E5",
"O. c #FFFCE6",
"+. c #FFFCE7",
"@. c #FFF9E9",
"#. c white",
/* pixels */
"4 9 6 4 9 0 4 7 9 2 .                     X 4 3 9 6 7 9 0 e 7 4 ",
"9 9 t 9 q S 9 9 r 7     & 1 1 1 1 &       . 4 9 7 4 7 6 e S e 7 ",
"0 0 y 0 9 r $ X X .   $ L } { { } L %       . # X $ t q 7 e e 7 ",
"9 6 0 7 2 4 .   1 1 1 6 W X.' ' X.E < @ = @       X e w 4 3 0 4 ",
"q 6 0 0 #     & P | } ) C N N N N N k j j p +     . 4 9 9 7 9 q ",
"t 7 t t #   % 4 ^ O.o._ C B B B B N j k m g > O     0 y t 0 w S ",
"e 7 q w X & L ! C V B C / X. . .X.W < > k m g i +   X & 9 7 q r ",
"9 9 2 2 . & [ X.N m m N ' #.@. .o.Y % @ g m m g +     X 0 q 5 9 ",
"e t &     & ] o.V m m N ` @.A B V b + = l m m d +     X r y 9 0 ",
"q t $   & 6 Q / B m m B ` o.V m m d + = g m m g > +     4 w 0 e ",
"6 w X % L ^ C N M m m N ` o.V c m d + * g m m x h i +   . $ 4 9 ",
"9 4 . & T O.B x m m m B ` o.V m M d + @ g m m m m g +     X 4 9 ",
"S q . & T X.V c m m m N ` o.V c m d + = g m m M m d +     . 4 S ",
"r q . & T o.V m m M M B ` o.V m m d + = g m m m m d +     . 4 t ",
"0 7 X & T o.V c m m m B ` o.V x M d + @ g M m m m d +     X 3 0 ",
"7 r $ & T o.V m m m m B ` o.V m m d + @ l m m m m d +     $ q 7 ",
"4 q X & T o.V m m m m B ` o.V x m d + @ g m m m m s @     # r q ",
"6 4 . & T X.V c m m m B ` X.V m m g + = g m M m m s @     # 0 0 ",
"S e X & T o.V m m M m N ` o.V c m d + @ g m m m m s @     . 7 0 ",
"t q X & T o.V m m c m B  .o.V c m d + = g m M m M g @     $ S S ",
"9 5 . & ] O.V m m c m N ' X.V m M g + @ g m m m m d +     $ t t ",
"6 7 $ $ H Y Z V M m m B X.o.V m m s + @ g m M m g u +   $ $ 9 0 ",
"0 4 $   $ 3 ~ ( N m m B X.O.V m m g + @ l m m g ; O   $ t e 6 4 ",
"9 2 X .   & ] o.V x m N K I v a s u O @ g m m g +     $ e w 7 4 ",
"7 4 3 1   & } X.B m m l , # O O o o   * g m m g @     . 2 4 7 0 ",
"y q 0 q . % G K n j x h 8 = = - = - - 8 k x s u +   . 1 e q 9 y ",
"t 0 w t X   $ 2 D F N m k k k k k k k z m j ; o   . 2 r S w 4 r ",
"7 6 q e $ X   $ G J f a M m m M m m s p a u +     . 2 0 w q 4 7 ",
"7 4 4 4 4 4     # # O - d m m M m g - O o o       . 7 4 4 6 7 4 ",
"7 q t 0 0 t & X # X   o u s s s s u O       $ X . 2 y 9 w y w 3 ",
"5 r y 0 w y w 4 0 q .   O O O + O O       X 0 9 7 t r 7 w S r 5 ",
"4 e e 7 w r q 6 2 4 X . .                 . 4 7 9 e 0 7 9 r q 4 "
};
