/* XPM */
static char *_c08a00f19cc4a288dc16524ff4f448bNU8Vz9vmqJCZlhFF[] = {
/* columns rows colors chars-per-pixel */
"32 32 113 2 ",
"   c #000000",
".  c #060C07",
"X  c #090C06",
"o  c #0B0E09",
"O  c #0C1603",
"+  c #0D1B05",
"@  c #071208",
"#  c #0B130A",
"$  c #0E1B08",
"%  c #11140E",
"&  c #131412",
"*  c #171916",
"=  c #191D17",
"-  c #1B1C1B",
";  c #0F2102",
":  c #122303",
">  c #242324",
",  c #2D2C2D",
"<  c #333334",
"1  c #3C3C3C",
"2  c #22561F",
"3  c #2F6F1D",
"4  c #367B17",
"5  c #245D27",
"6  c #245B28",
"7  c #2B6821",
"8  c #27662A",
"9  c #28672B",
"0  c #327F36",
"q  c #3F3F40",
"w  c #434343",
"e  c #484749",
"r  c #4B4B4B",
"t  c #4F4E50",
"y  c #504F50",
"u  c #545354",
"i  c #5B5B5B",
"p  c #636363",
"a  c #686768",
"s  c #6B6B6B",
"d  c #747474",
"f  c #7D7D7D",
"g  c #358433",
"h  c #378932",
"j  c #378B3D",
"k  c #388E3C",
"l  c #3F9A36",
"z  c #3A913B",
"x  c #428E01",
"c  c #479A06",
"v  c #43920A",
"b  c #4CA201",
"n  c #55B601",
"m  c #55B801",
"M  c #49A71F",
"N  c #51B71A",
"B  c #53BA18",
"V  c #41992A",
"C  c #419E34",
"Z  c #47A523",
"A  c #48A722",
"S  c #47AA2E",
"D  c #49AD2C",
"F  c #4EB429",
"G  c #52BD25",
"H  c #43A232",
"J  c #59C514",
"K  c #57C61F",
"L  c #58C71F",
"P  c #5ACB1D",
"I  c #5ED219",
"U  c #68DF01",
"Y  c #60D617",
"T  c #64DC15",
"R  c #61D719",
"E  c #61D918",
"W  c #69E001",
"Q  c #6AE301",
"!  c #6BE502",
"~  c #6BE602",
"^  c #69E204",
"/  c #6EEB01",
"(  c #69E60F",
")  c #6DEE0B",
"_  c #6BEA0D",
"`  c #6CEB0D",
"'  c #6CEC0D",
"]  c #6EEF0D",
"[  c #6FF109",
"{  c #72F707",
"}  c #77FF02",
"|  c #75FB06",
" . c #76FE04",
".. c #7AFF01",
"X. c #7AFF02",
"o. c #78FF04",
"O. c #70F208",
"+. c #70F209",
"@. c #72F609",
"#. c #67E211",
"$. c #69E611",
"%. c #55C221",
"&. c #54C022",
"*. c #55C323",
"=. c #56C420",
"-. c #57C520",
";. c #54C124",
":. c #58C721",
">. c #59CA20",
",. c #808080",
"<. c #818181",
"1. c #828282",
"2. c #848484",
/* pixels */
"< e < , 1 q , < < , i r < , r e , w w < w u 1 , 1 < 1 1 1 u 1 < ",
"w < # o & - # # # o o & o X o & # o o X % % % X X % o # & > u 1 ",
"u , + b m m m m n m n n m m m n m m m m m m n m m n m m b $ t 1 ",
"e > O Z G G G T ......| :.G G G G G G G G G G G G G G G A $ < < ",
"y , $ M G C j G } } } O.l F B H k k j j k k F C H G %.F 0 # 1 y ",
"d < + W o.D j G } } } [ H #...G j k k k k k G :.K #...' g @ y ,.",
"p < + U o.D j G ..} } [ H #...G j k k k k k H P %.L ..` g @ e d ",
"w 1 : U o.D j %.} } } [ C #.} G j k k k k k P G K ) ..! h @ , w ",
"p s : U  .D j G .. .} [ H #.} G k k k k k k C P %.G } ` g # < e ",
"u p : U  .D j G ....} O.H #.} G k k k k k k R G L O.} ` g $ < p ",
"q y : ^ o.D j %...} } O.C #...G j k k k k k H P %.L } ` g $ , w ",
"w , : U  .D j G } } } O.H #.} G j k k k k z %.G =.#.} ` g # , e ",
"2.t $ ! ..D j *...} } O.H #.} G j k k k k k F :.G R ..' g # < <.",
"s e : W ..D j *.......@.H $...*.k z z k z z F :.:.R ..' h # , d ",
"e < O x b 3 6 4 b b b c 7 v b 4 6 5 6 5 5 5 v 4 4 b b v 2 o > r ",
"q p -                                                   . > u 6 ",
"< i r &   + : + O O : : : : + @ # # # # # @ ; ; ; ; @   & s d u ",
"< 1 1 < % b / B g C U ! ! ! Z 0 g g g g g h J Z N K 6 X , r u e ",
"<.s 1 1 % n ..P j S } } } } F k k k j j z I F P { #.8 = i < w r ",
"d i 1 u - n ..P j S | } } } F j k k k j k H I G I I 8 * w w <.f ",
"w q w < o n ..L j S @. .} | F j k k k k z *.*.K ` R 6 o , r f d ",
"1 e <.i % n ..L j S  . .} } F k k k k k z G K K $.R 9 & e 1 w e ",
"e w f y # n } P j S |  .} } F k k k k k z D P G T R 9 > <.a 1 < ",
"w < y < X n ..P j S | } } ..F j k k k k z >.G :.O.R 6 - a p 6 < ",
"6 1 < , X n ..=.j S | } } } F k k k k k k C Y G R R 9 o , < 1 t ",
"f t t y o n ..:.j S | } } | F j k k k k z I F P | R 9 * a u w d ",
"d e i d - n ..L j S | } } } F j k k k k z V Y G Y R 9 - d i < s ",
"1 1 i p & n ..L j S | } } } F j k k k k z Y F P O.R 9 % i u < w ",
"q < < < % n ..L j S { } } ..F k k k k k k D P G T R 9 X , 1 1 , ",
"w y d w X n ..P j S | ..} ..F j k k k k z G K K ` E 9 X i f p , ",
"< s f e o n ..P j S | } } } F j k k k k k G %.K $.R 9 X i <.a < ",
"< p a q o n ..P j S | } } } F j k k k k k H Y G Y E 9 X 1 d u < "
};
