/* XPM */
static char *ffce9f76c3674335e95ae694956879afDegRXINQIgJuVHd6[] = {
/* columns rows colors chars-per-pixel */
"32 32 182 2 ",
"   c #020202",
".  c #0B0605",
"X  c #01010E",
"o  c #0A0A0B",
"O  c #0B0B0B",
"+  c #180203",
"@  c #130C0C",
"#  c #1A0C0C",
"$  c #15120F",
"%  c #1A130E",
"&  c #0A0914",
"*  c #0F1112",
"=  c #131313",
"-  c #1D1616",
";  c #1A1B1B",
":  c #270A0A",
">  c #3A0100",
",  c #20140E",
"<  c #241512",
"1  c #2D1617",
"2  c #241B14",
"3  c #2C1B13",
"4  c #231C1D",
"5  c #301F15",
"6  c #1F200E",
"7  c #28211B",
"8  c #1B1A24",
"9  c #232222",
"0  c #2A2725",
"q  c #26242C",
"w  c #2C2C2C",
"e  c #352927",
"r  c #36312D",
"t  c #2E2F30",
"y  c #2F3131",
"u  c #343434",
"i  c #393636",
"p  c #353738",
"a  c #37383B",
"s  c #3C3C3C",
"d  c #4C0403",
"f  c #520403",
"g  c #550B0A",
"h  c #5A1514",
"j  c #690301",
"k  c #720302",
"l  c #790606",
"z  c #69140F",
"x  c #651719",
"c  c #442A1E",
"v  c #642118",
"b  c #4F052F",
"n  c #472B2B",
"m  c #47352B",
"M  c #533F2B",
"N  c #443C3C",
"B  c #6B2925",
"V  c #723430",
"C  c #6B6E1A",
"Z  c #5A442D",
"A  c #6D533B",
"S  c #74563B",
"D  c #785439",
"F  c #77593C",
"G  c #7D5C3D",
"H  c #736F25",
"J  c #37035B",
"K  c #0E0063",
"L  c #11016E",
"P  c #4C0443",
"I  c #3F4040",
"U  c #434343",
"Y  c #464747",
"T  c #4B4B4B",
"R  c #544F4F",
"E  c #4D5054",
"W  c #535353",
"Q  c #5C5C5C",
"!  c #7E6143",
"~  c #646464",
"^  c #6D6660",
"/  c #6B6B6B",
"(  c #747474",
")  c #7B7B7B",
"_  c #8C0604",
"`  c #870D0B",
"'  c #8E1310",
"]  c #AB0102",
"[  c #A80704",
"{  c #B30402",
"}  c #BC0404",
"|  c #B80804",
" . c #BA0909",
".. c #960236",
"X. c #9C2820",
"o. c #8A3131",
"O. c #AF332E",
"+. c #C50302",
"@. c #CC0303",
"#. c #D40202",
"$. c #DA0304",
"%. c #E50205",
"&. c #F70101",
"*. c #FF0000",
"=. c #FC0901",
"-. c #F30112",
";. c #D22B2A",
":. c #FC2C2C",
">. c #8E7131",
",. c #F45C1C",
"<. c #D37A1A",
"1. c #9C025E",
"2. c #A7026F",
"3. c #C60241",
"4. c #BA4F4F",
"5. c #A75050",
"6. c #886645",
"7. c #946E49",
"8. c #9B744D",
"9. c #A0774D",
"0. c #A67B50",
"q. c #A87D53",
"w. c #816F70",
"e. c #AE7676",
"r. c #B27A7A",
"t. c #EF4544",
"y. c #7E841D",
"u. c #AF8255",
"i. c #B78759",
"p. c #C49755",
"a. c #D8A067",
"s. c #DCA46A",
"d. c #E7AC6F",
"f. c #F3B76C",
"g. c #EAAE71",
"h. c #F0B474",
"j. c #FABB75",
"k. c #FEBE79",
"l. c #FFC178",
"z. c #120282",
"x. c #15028D",
"c. c #150092",
"v. c #260987",
"b. c #2D1D8C",
"n. c #1601A2",
"m. c #1A01AB",
"M. c #1D03B9",
"N. c #1E0ABD",
"B. c #2600AE",
"V. c #3903A6",
"C. c #2701B0",
"Z. c #3F26BD",
"A. c #6701B7",
"S. c #6428BB",
"D. c #1E02C0",
"F. c #2301DA",
"G. c #2401E0",
"H. c #2802F5",
"J. c #2701FF",
"K. c #2A01FF",
"L. c #4102E2",
"P. c #838383",
"I. c #85888A",
"U. c #8B8B8B",
"Y. c #949494",
"T. c #999A9A",
"R. c #AAAAAA",
"E. c #ABB0B0",
"W. c #B5B5B5",
"Q. c #BBBBBB",
"!. c #FA8080",
"~. c #D9BFA2",
"^. c #FEADAD",
"/. c #F7B5B5",
"(. c #EDCFAF",
"). c #F2D6B7",
"_. c #C4C4C4",
"`. c #D4D4D4",
"'. c #DDDEDF",
"]. c #FFE3C2",
"[. c #E9E9E9",
"{. c white",
/* pixels */
"u U s u U R u s U p s q ; B O.O.X.V u p Y Q U w U s s U T ~ s u ",
"U U ( Y W P.T Y ) u . d k } =.=.=. .h U I i Y Q T s s i / ) / s ",
"T Y ) Y U ( Y Y W x j @.=.*.*.*.=.:.o.w Q i ( I./ s ( W s ~ / s ",
"Y s T U u U U 0 g #.*.*.*.=.*.*.:.^.T.q Q s / / Q s / Q i u U t ",
"R a Y W I U W h #.*.*.*.*.@.[ ] 5.E.~ * a s s s I p a Z Y s U W ",
"( s ) P.Y u < @.*.*.*.@.{ l d f f g f f c Y s ~ ~ I Q P.( T Q ) ",
"Q I W ~ U > f $.*.@.| k d _ | { { { { @.[ % w ( ( I Y ~ R s W ( ",
"U Y s u : #.&.*.@.v c '  .d < m N m 2 f ` @ = Q / E y s E E i U ",
"~ P./ U : $.*.#.h i.h.F # , 8.).'.~.7.O 4 s U i I T Q a ( ( Y T ",
"W ) / T 1  .@.> ! d.l.h.M 6.j.].I.! 7.; w Q P.~ p W ) T I / T ~ ",
"s ~ Q U p 1 + . S s.f.j.Z 7.k.(.) 6.q.2 7 i ~ W I a I R u I s I ",
"U s s E I t o   @ G 8.d.A 8.k.6.A a.s.a.s.9.9 s / / I u U Y s Y ",
"P.Q U P./ s *     o 2 i.d.f.k.6.@ < Z 0.0.F 9 s Q ) Q I I.~ I I.",
"/ W s ) / Z I 8     M 8.s.j.j.g.F   . % % u ~ W a ~ I ~ u.E I / ",
"U U s W Q I I Y r = < 3 G q.a.k.d.F     * T Q E p a a I E I a I ",
"s ) Q u I I I a q v...+.z 3 S i.i.8.m   * p s s a / / I I ( ~ I ",
"u Q Q U P.P.E 8 v.1.-.*.#.} z 5 5 3 ^ ) o u ) ~ s ( ( Y U ) ) W ",
"s a N I W W 9 X C.3.*.*.*.*.#.] { 5.`.[.W.U.u Y u Y W U u T W U ",
"P./ I U U 0 >.8 C.3.*.*.*.*.*.*.*.X.T.{.{.W.o 9 / Y s ) ~ a U T ",
"( Q s Q / 7 p.e B.P @.*.*.*.*.*.*.#.o.Q Q I   . w 9 s P.E s I.u.",
"s s U a i 6 p.e N.m.b j @.*.*.*.} j >             o y T y E I.( ",
"s Y P.~ y - p.e N.H.m.z.b k k k P x.x.x.x.K 6 y.C O = ; I a I I ",
"Y U ) W i % Z - N.H.K.K.m.z.z.z.D.K.K.K.K.Z.>.<.H Y U Y E Q I a ",
"U u W 9 9 o   X N.H.K.K.K.K.K.K.J.J.K.K.J.S.,.@.# I E / 8 E I y ",
"N u y     w   X C.J.K.K.K.K.K.K.K.K.K.K.J.A.$.k . u s s * q I E ",
"u.E 8 & a I.I o L c.G.K.K.K.K.K.K.K.K.K.L.2.} @ s ) ( u * Z I ) ",
"( I & a Y.Q.T.s & Y b.m.F.K.K.K.F.n.n.V.2.%.` I P.Y.Y.( ; T p / ",
"a a 8 ) _.`._.I.q r.w.E b.m.m.m.J f f j ] l 7 P.R.`.`.Y.s s y I ",
"I w ; ) W.'.Q.u.4 } d./.w.T E a x ;.t.4.n > 8 P.Q.[.[.W.) ; t u ",
"I I p Q I.R.I.) 4 _ +. .e.Q.Q.Y.i P.W.~.e.' i ~ U.W.W.I.Q y E y ",
"p / / q Q ~ ~ Q 9 $ # # * = ; 9 9 8 * 8 = r W 0 ~ ~ / Q w / / u ",
"p Q ~ I * * & & 9 u a U a u y W ~ T y q u w u r * O O * s / W u "
};
